<?xml version="1.0" encoding="UTF-8"?>
<svg width="119px" height="138px" viewBox="0 0 119 138" version="1.1" xmlns="http://www.w3.org/2000/svg" xmlns:xlink="http://www.w3.org/1999/xlink">
    <title>logo</title>
    <g id="Page-1" stroke="none" stroke-width="1" fill="none" fill-rule="evenodd">
        <g id="logo" transform="translate(0.966550, 0.050726)" fill-rule="nonzero">
            <path d="M36.7032721,84.5992735 C36.6935014,87.8477979 37.1001509,91.0841895 37.9134503,94.2292735 C38.283782,95.6685259 38.7583689,97.0789179 39.3334503,98.4492735 C39.7915501,99.4067277 40.6174486,100.138177 41.623247,100.47721 C42.6290454,100.816243 43.7292122,100.73403 44.6734503,100.249274 C47.2734503,99.0792735 48.2134503,95.8392735 47.2334503,93.1592735 C47.0534503,92.6692735 46.8934503,92.1592735 46.7334503,91.6692735 C46.0180992,89.3596448 45.6474411,86.9571065 45.6334503,84.5392735 C45.6334503,80.1126069 46.7367836,77.8959402 48.9434503,77.8892735 C50.1262177,77.8994004 51.1624832,78.6837111 51.4934503,79.8192735 C52.2926275,81.7781307 52.8955779,83.8114133 53.2934503,85.8892735 C53.8231259,88.4983755 54.5212542,91.0704271 55.3834503,93.5892735 C56.1366251,95.6510698 57.3909704,97.4930675 59.0334503,98.9492735 C60.9194053,100.506341 63.3212065,101.298614 65.7634503,101.169274 C68.1404099,101.210573 70.4713805,100.511631 72.4334503,99.1692735 C74.5699235,97.6448431 76.2223893,95.5376021 77.1934503,93.0992735 C78.4382356,89.9163675 79.0299748,86.5155675 78.9334503,83.0992735 C78.9349102,80.4253514 78.6227783,77.7604837 78.0034503,75.1592735 C77.765807,74.0815668 77.4618963,73.0195492 77.0934503,71.9792735 C76.6846825,70.9427085 75.8620752,70.1236247 74.8237651,69.7193102 C73.785455,69.3149956 72.6255574,69.3620986 71.6234503,69.8492735 C69.1185533,71.0465252 67.9392471,73.9557696 68.9034503,76.5592735 C69.6136083,78.6877672 69.9815163,80.9154671 69.9934503,83.1592735 C70.1346026,84.8866817 69.7881325,86.6190323 68.9934503,88.1592735 C68.4762011,89.1220414 67.4763027,89.7273439 66.3834503,89.7392735 C65.2525573,89.7056557 64.2698931,88.9525483 63.9434503,87.8692735 C63.2009867,85.9249095 62.6386259,83.9164782 62.2634503,81.8692735 C61.7464843,79.2509887 61.0276716,76.6766364 60.1134503,74.1692735 C59.3900722,72.1216429 58.1541035,70.293511 56.5234503,68.8592735 C54.6805627,67.261936 52.2885055,66.4442613 49.8534503,66.5792735 C47.4930208,66.545064 45.1800889,67.243835 43.2334503,68.5792735 C41.11165,70.1419243 39.466889,72.2645318 38.4834503,74.7092735 C37.2447635,77.8659887 36.6530506,81.2394323 36.7434503,84.6292735" id="Path" fill="#FDBF2D"></path>
            <path d="M94.6734503,103.669276 C92.1092857,103.671684 89.8055367,102.102777 88.8684905,99.7159615 C87.9314442,97.3291455 88.5525122,94.6119777 90.4334503,92.8692735 C104.372579,79.9157433 108.987563,59.7634223 102.074824,42.0347084 C95.1620853,24.3059946 78.1236967,12.5967061 59.0952056,12.4978334 C40.0667144,12.3989608 22.9075654,23.9305578 15.8109669,41.5864786 C8.7143684,59.2423995 13.1196846,79.4415904 26.9234503,92.5392735 C29.151945,94.954169 29.1216609,98.6847089 26.8542547,101.063107 C24.5868484,103.441505 20.8620108,103.649904 18.3434503,101.539274 C0.832863205,84.9231568 -4.7548175,59.2986996 4.24839311,36.9009721 C13.2516037,14.5032446 35.0196675,-0.125028694 59.1588507,2.84217094e-14 C83.2980338,0.126639592 104.912409,14.9810594 113.681624,37.471432 C122.450839,59.9618046 116.596316,85.5266153 98.9134503,101.959274 C97.7639007,103.034857 96.2477237,103.632031 94.6734503,103.629274" id="Path" fill="#FCBF2B"></path>
            <path d="M33.9334503,107.359274 L84.4734503,107.359274 C87.9141843,107.359274 90.7034508,110.14854 90.7034508,113.589274 C90.7034508,117.030008 87.9141843,119.819274 84.4734503,119.819274 L33.9334503,119.819274 C30.4927165,119.819274 27.7034508,117.030007 27.7034508,113.589274 C27.7034508,110.14854 30.4927165,107.359274 33.9334503,107.359274" id="Path" fill="#FFFFFF"></path>
            <path d="M38.0834503,124.669274 L80.3134503,124.669274 C83.7541843,124.669274 86.5434503,127.45854 86.5434503,130.899274 C86.5434503,134.340008 83.7541843,137.129274 80.3134503,137.129274 L38.0834503,137.129274 C34.6427163,137.129274 31.8534503,134.340008 31.8534503,130.899274 C31.8534503,127.45854 34.6427163,124.669274 38.0834503,124.669274" id="Path" fill="#FFFFFF"></path>
        </g>
    </g>
</svg>