<svg id="图层_1" data-name="图层 1" xmlns="http://www.w3.org/2000/svg" viewBox="0 0 841.89 595.28"><defs><style>.cls-1{fill:#fdbf2d;}.cls-2{fill:#fcbf2b;}.cls-3{fill:#323232;}.cls-4{fill:#fcbe2b;}</style></defs><title>STEMinds-logo</title><path class="cls-1" d="M159.67,313.65a38,38,0,0,0,1.21,9.63,30.63,30.63,0,0,0,1.42,4.22,3.93,3.93,0,0,0,5.34,1.8c2.6-1.17,3.54-4.41,2.56-7.09-.18-.49-.34-1-.5-1.49a24.58,24.58,0,0,1-1.1-7.13q0-6.64,3.31-6.65a2.68,2.68,0,0,1,2.55,1.93,32,32,0,0,1,1.8,6.07,61.65,61.65,0,0,0,2.09,7.7A13.23,13.23,0,0,0,182,328a9.76,9.76,0,0,0,6.73,2.22,11.46,11.46,0,0,0,6.67-2,13.67,13.67,0,0,0,4.76-6.07,25.48,25.48,0,0,0,1.74-10,34.2,34.2,0,0,0-.93-7.94,26.83,26.83,0,0,0-.91-3.18,4,4,0,0,0-5.47-2.13,5.37,5.37,0,0,0-2.72,6.71,21.21,21.21,0,0,1,1.09,6.6,9.26,9.26,0,0,1-1,5,3,3,0,0,1-2.61,1.58,2.63,2.63,0,0,1-2.44-1.87,34,34,0,0,1-1.68-6,51.73,51.73,0,0,0-2.15-7.7,12.71,12.71,0,0,0-3.59-5.31,9.39,9.39,0,0,0-6.67-2.28,11.41,11.41,0,0,0-6.62,2,14.19,14.19,0,0,0-4.75,6.13,25.31,25.31,0,0,0-1.74,9.92"/><path class="cls-2" d="M217.64,332.72a6.23,6.23,0,0,1-4.24-10.8,46.39,46.39,0,1,0-63.51-.33,6.23,6.23,0,0,1-8.58,9,58.85,58.85,0,1,1,80.57.42,6.19,6.19,0,0,1-4.24,1.67"/><path class="cls-3" d="M156.9,336.41h50.54a6.23,6.23,0,0,1,0,12.46H156.9a6.23,6.23,0,0,1,0-12.46"/><path class="cls-3" d="M161.05,353.72h42.23a6.23,6.23,0,0,1,0,12.46H161.05a6.23,6.23,0,0,1,0-12.46"/><path class="cls-3" d="M284.68,333.91a33.91,33.91,0,0,1-11.21-5.27l4.95-11a33.59,33.59,0,0,0,9.63,4.77,35.88,35.88,0,0,0,11.16,1.8q6.21,0,9.18-1.84a5.58,5.58,0,0,0,3-4.91,4.67,4.67,0,0,0-1.75-3.73,13.31,13.31,0,0,0-4.5-2.39q-2.75-.9-7.43-2A100.65,100.65,0,0,1,285.89,306a19.14,19.14,0,0,1-7.87-5.49q-3.28-3.78-3.29-10.08a17.54,17.54,0,0,1,3-9.94,20.07,20.07,0,0,1,9-7.07,36.52,36.52,0,0,1,14.62-2.61,48.92,48.92,0,0,1,11.79,1.44,34.83,34.83,0,0,1,10.08,4.14l-4.5,11.07a35.23,35.23,0,0,0-17.46-4.95c-4.08,0-7.09.67-9,2a6,6,0,0,0-2.93,5.22q0,3.24,3.38,4.82a52.28,52.28,0,0,0,10.3,3.1A104.71,104.71,0,0,1,314.69,301a19.54,19.54,0,0,1,7.88,5.4q3.29,3.7,3.28,10a17.21,17.21,0,0,1-3,9.86,20.26,20.26,0,0,1-9,7.06,36.87,36.87,0,0,1-14.67,2.61,51.51,51.51,0,0,1-14.44-2"/><polygon class="cls-3" points="347.99 283.73 327.83 283.73 327.83 271.85 382.73 271.85 382.73 283.73 362.57 283.73 362.57 334.85 347.99 334.85 347.99 283.73"/><polygon class="cls-3" points="439.34 323.15 439.34 334.85 390.56 334.85 390.56 271.85 438.17 271.85 438.17 283.55 405.05 283.55 405.05 297.23 434.3 297.23 434.3 308.57 405.05 308.57 405.05 323.15 439.34 323.15"/><polygon class="cls-3" points="504.28 334.85 504.19 297.06 485.65 328.19 479.08 328.19 460.63 297.86 460.63 334.85 446.95 334.85 446.95 271.85 459.01 271.85 482.59 311 505.81 271.85 517.78 271.85 517.96 334.85 504.28 334.85"/><path class="cls-4" d="M528.63,279.43a7.62,7.62,0,0,1,0-11.16,8.9,8.9,0,0,1,6.3-2.25,9.13,9.13,0,0,1,6.3,2.16,6.93,6.93,0,0,1,2.43,5.4,7.65,7.65,0,0,1-2.43,5.81,8.8,8.8,0,0,1-6.3,2.29,8.9,8.9,0,0,1-6.3-2.25m-.72,7h14v48.42h-14Z"/><path class="cls-4" d="M597,291.11q5.52,5.4,5.53,16v27.72h-14V309.29q0-5.76-2.52-8.59t-7.29-2.84a11.18,11.18,0,0,0-8.46,3.29q-3.15,3.28-3.15,9.76v23.94H553V286.43h13.41v5.67a18.61,18.61,0,0,1,6.93-4.72,24.15,24.15,0,0,1,9.09-1.67q9,0,14.54,5.4"/><path class="cls-4" d="M662.05,268.07v66.78H648.64v-5.58q-5.22,6.3-15.12,6.3a25.06,25.06,0,0,1-12.38-3.06,21.9,21.9,0,0,1-8.68-8.73,29,29,0,0,1,0-26.28,21.9,21.9,0,0,1,8.68-8.73,25.27,25.27,0,0,1,12.38-3.06q9.27,0,14.49,5.85V268.07Zm-17.28,52.34q3.51-3.65,3.51-9.77t-3.51-9.76a12.59,12.59,0,0,0-17.73,0q-3.51,3.64-3.51,9.76t3.51,9.77a12.61,12.61,0,0,0,17.73,0"/><path class="cls-4" d="M679.51,334.09a30.8,30.8,0,0,1-9.18-3.74L675,320.27a29.46,29.46,0,0,0,7.83,3.38,32.81,32.81,0,0,0,9,1.3q8.91,0,8.91-4.41,0-2.07-2.43-3a36,36,0,0,0-7.47-1.53A72.06,72.06,0,0,1,681,314a15.24,15.24,0,0,1-6.71-4.14q-2.83-3-2.83-8.46a13.23,13.23,0,0,1,2.65-8.14,17.1,17.1,0,0,1,7.74-5.54,33.09,33.09,0,0,1,12-2,47.12,47.12,0,0,1,10.21,1.13,28.59,28.59,0,0,1,8.42,3.1l-4.68,10a27.94,27.94,0,0,0-14-3.6,14.19,14.19,0,0,0-6.75,1.26,3.72,3.72,0,0,0-2.25,3.24,3.22,3.22,0,0,0,2.43,3.15,43,43,0,0,0,7.74,1.71,82.73,82.73,0,0,1,9.72,2.12,14.59,14.59,0,0,1,6.57,4.09q2.79,3,2.79,8.28a12.79,12.79,0,0,1-2.7,8,17.26,17.26,0,0,1-7.88,5.45,35.06,35.06,0,0,1-12.28,1.93,47,47,0,0,1-11.79-1.48"/></svg>