<?xml version="1.0" encoding="UTF-8"?>
<svg width="235px" height="291px" viewBox="0 0 235 291" version="1.1" xmlns="http://www.w3.org/2000/svg" xmlns:xlink="http://www.w3.org/1999/xlink">
    <title>logo</title>
    <g id="Page-1" stroke="none" stroke-width="1" fill="none" fill-rule="evenodd">
        <g id="logo" transform="translate(0.000000, -0.001690)" fill-rule="nonzero">
            <path d="M72.999658,179.148507 C72.9805699,186.011449 73.7892411,192.84876 75.4065848,199.493171 C76.143034,202.533784 77.086807,205.513426 78.2304255,208.408485 C79.1414121,210.431235 80.7838106,211.976519 82.7839616,212.692772 C84.7841126,213.409025 86.9719266,213.235338 88.8496575,212.211226 C94.02007,209.739445 95.889373,202.894511 93.9405252,197.232652 C93.5825736,196.197462 93.2643943,195.120018 92.9462151,194.084828 C91.5236534,189.205428 90.7865552,184.129744 90.7587329,179.021749 C90.7587329,169.669823 92.9528438,164.986818 97.3410658,164.972733 C99.6931409,164.994128 101.753879,166.651089 102.412047,169.050117 C104.001307,173.188465 105.200347,177.484046 105.991564,181.873804 C107.044887,187.385881 108.433199,192.819685 110.14778,198.141085 C111.645558,202.496906 114.139975,206.388372 117.406244,209.464802 C121.156692,212.754315 125.932962,214.428098 130.789658,214.154849 C135.516528,214.2421 140.151943,212.765492 144.053755,209.929582 C148.302388,206.709018 151.588515,202.25719 153.519587,197.105894 C155.994992,190.381579 157.171736,183.196934 156.979786,175.979556 C156.982689,170.330537 156.361977,164.700648 155.130369,159.205243 C154.657787,156.928443 154.053424,154.684789 153.320725,152.487067 C152.507841,150.297185 150.871987,148.566761 148.807183,147.712592 C146.742378,146.858424 144.435783,146.957935 142.442972,147.987157 C137.461683,150.516512 135.116491,156.66268 137.033925,162.16293 C138.44616,166.659658 139.177789,171.365972 139.201521,176.106314 C139.48222,179.755695 138.793222,183.415517 137.212901,186.669483 C136.184289,188.703459 134.195871,189.982242 132.022602,190.007445 C129.773686,189.936422 127.81954,188.345382 127.170369,186.056819 C125.693891,181.94909 124.575569,177.70601 123.829487,173.381016 C122.801438,167.849539 121.371992,162.410875 119.553954,157.113735 C118.115429,152.787842 115.657557,148.925668 112.414807,145.89565 C108.750003,142.521061 103.99311,140.793613 99.1507102,141.078845 C94.4567123,141.006572 89.8571692,142.48282 85.9860444,145.304112 C81.7665895,148.605421 78.4957844,153.089714 76.5400984,158.254558 C74.0768207,164.923541 72.9001285,172.050392 73.0798992,179.211886" id="Path" fill="#FDBF2D"></path>
            <path d="M189.018261,220.278343 C183.898833,220.283452 179.299332,216.949837 177.428492,211.878327 C175.557652,206.806817 176.797632,201.033374 180.552979,197.330473 C208.38285,169.806791 217.596798,126.987107 203.795316,89.3171064 C189.993835,51.6471065 155.976203,26.7671913 117.985274,26.5571065 C79.9943453,26.3470217 45.7356119,50.8493777 31.5670493,88.3647071 C17.3984866,125.880037 26.1938269,168.79931 53.7534413,196.629289 C58.202695,201.760462 58.1422318,209.68712 53.6152902,214.740744 C49.0883486,219.794368 41.6516034,220.237175 36.6232251,215.752503 C1.66283529,180.446551 -9.49312962,125.999663 8.48203878,78.4089352 C26.4572072,30.8182075 69.9177714,-0.263971508 118.112343,-1.42108547e-14 C166.306915,0.270773676 209.460635,31.8334691 226.968625,79.6210494 C244.476615,127.40863 232.787891,181.728781 197.483543,216.64492 C195.188434,218.930322 192.161343,220.199197 189.018261,220.193339" id="Path" fill="#FCBF2B"></path>
            <path d="M67.4599991,228.114265 L168.54,228.114265 C175.421468,228.114265 181,233.961372 181,241.174145 C181,248.386918 175.421468,254.234025 168.54,254.234025 L67.4599991,254.234025 C60.5785314,254.234025 55,248.386917 55,241.174145 C55,233.961373 60.5785314,228.114265 67.4599991,228.114265" id="Path" fill="#323232"></path>
            <path d="M75.4167124,264.68193 L159.583288,264.68193 C166.440849,264.68193 172,270.529037 172,277.74181 C172,284.954582 166.440849,290.80169 159.583288,290.80169 L75.4167124,290.80169 C68.5591515,290.80169 63,284.954582 63,277.74181 C63,270.529037 68.5591515,264.68193 75.4167124,264.68193" id="Path" fill="#323232"></path>
        </g>
    </g>
</svg>