<?xml version="1.0" encoding="UTF-8"?>
<svg width="940px" height="1165px" viewBox="0 0 940 1165" version="1.1" xmlns="http://www.w3.org/2000/svg" xmlns:xlink="http://www.w3.org/1999/xlink">
    <title>white_bulb</title>
    <g id="Page-1" stroke="none" stroke-width="1" fill="none" fill-rule="evenodd">
        <g id="white_bulb" transform="translate(0.000000, 0.996642)" fill-rule="nonzero">
            <path d="M291.997311,716.592426 C291.92228,744.043877 295.156964,771.392805 301.626339,797.970142 C304.572136,810.132453 308.347228,822.050884 312.921702,833.630986 C316.565648,841.721893 323.135242,847.902957 331.135846,850.767936 C339.13645,853.632915 347.887706,852.938175 355.39863,848.841774 C376.08028,838.954765 383.557492,811.575345 375.762101,788.92817 C374.330294,784.787458 373.057577,780.477732 371.78486,776.33702 C366.094614,756.819645 363.146221,736.517144 363.034932,716.0854 C363.034932,678.678128 371.811375,659.946324 389.364263,659.889985 C398.772564,659.975564 407.015516,666.603331 409.648188,676.199332 C416.005228,692.752533 420.801388,709.934659 423.966256,727.493488 C428.179548,749.541541 433.732796,771.276506 440.59112,792.56186 C446.582232,809.984943 456.5599,825.550627 469.624976,837.856205 C484.626768,851.014105 503.731848,857.70916 523.158632,856.616177 C542.066112,856.965177 560.607772,851.058813 576.21502,839.715304 C593.209552,826.833197 606.35406,809.02609 614.078348,788.421144 C623.979968,761.524195 628.686944,732.785947 627.919144,703.916768 C627.930756,681.320953 625.447908,658.801657 620.521476,636.820291 C618.631148,627.713196 616.213696,618.738684 613.2829,609.947897 C610.031364,601.18847 603.487948,594.266854 595.228732,590.850218 C586.969512,587.433585 577.743132,587.831625 569.771888,591.948465 C549.846732,602.065768 540.465964,626.650156 548.1357,648.650902 C553.78464,666.637607 556.711156,685.462645 556.806084,704.423794 C557.92888,719.02115 555.172888,733.660269 548.851604,746.675982 C544.737156,754.811792 536.783484,759.926865 528.090408,760.027676 C519.094744,759.743587 511.27816,753.379501 508.681476,744.225355 C502.775564,727.794628 498.302276,710.822504 495.317948,693.522728 C491.205752,671.397076 485.487968,649.642671 478.215816,628.454356 C472.461716,611.150983 462.630228,595.702466 449.659228,583.582534 C435.000012,570.084334 415.97244,563.174621 396.602841,564.315536 C377.826849,564.026448 359.428677,569.931371 343.944178,581.216409 C327.066358,594.421493 313.983138,612.358457 306.160394,633.017595 C296.307283,659.693219 291.600514,688.200294 292.319597,716.845939" id="Path" fill="#FDBF2D"></path>
            <path d="M756.073044,881.109893 C735.595332,881.130306 717.197328,867.795999 709.713968,847.510194 C702.230608,827.224388 707.190528,804.130883 722.211916,789.31945 C833.5314,679.225993 870.387192,507.949235 815.181264,357.270973 C759.97534,206.592713 623.904812,107.074202 471.941096,106.233872 C319.977381,105.393543 182.942448,203.401835 126.268197,353.46142 C69.5939464,503.521006 104.775308,675.196116 215.013765,786.514746 C232.81078,807.039201 232.568927,838.745467 214.461161,858.95973 C196.353394,879.173992 166.606414,880.9452 146.4929,863.006719 C6.65134116,721.784542 -37.9725185,503.999505 33.9281551,313.638792 C105.828829,123.27808 279.671086,-1.04920063 472.449372,5.68427624e-14 C665.22766,1.08975541 837.84254,127.339079 907.8745,318.487193 C977.90646,509.635308 931.151564,726.913402 789.934172,866.576346 C780.753736,875.717848 768.645372,880.793289 756.073044,880.769858" id="Path" fill="#FCBF2B"></path>
            <path d="M269.839996,912.453196 L674.16,912.453196 C701.685872,912.453196 724,935.841354 724,964.692112 C724,993.542871 701.685872,1016.93103 674.16,1016.93103 L269.839996,1016.93103 C242.314126,1016.93103 220,993.542867 220,964.692112 C220,935.841358 242.314126,912.453196 269.839996,912.453196" id="Path" fill="#FFFFFF"></path>
            <path d="M301.66685,1058.72217 L638.333152,1058.72217 C665.763396,1058.72217 688,1082.11032 688,1110.96108 C688,1139.81184 665.763396,1163.2 638.333152,1163.2 L301.66685,1163.2 C274.236606,1163.2 252,1139.81184 252,1110.96108 C252,1082.11032 274.236606,1058.72217 301.66685,1058.72217" id="Path" fill="#FFFFFF"></path>
        </g>
    </g>
</svg>