<?xml version="1.0" encoding="UTF-8"?>
<svg width="1178px" height="291px" viewBox="0 0 1178 291" version="1.1" xmlns="http://www.w3.org/2000/svg" xmlns:xlink="http://www.w3.org/1999/xlink">
    <title>logo</title>
    <g id="Page-1" stroke="none" stroke-width="1" fill="none" fill-rule="evenodd">
        <g id="logo" fill-rule="nonzero">
            <path d="M73,179.146817 C72.9805699,186.009759 73.7892411,192.84707 75.4065848,199.491481 C76.143034,202.532094 77.086807,205.511736 78.2304255,208.406795 C79.1414121,210.429545 80.7838106,211.974829 82.7839616,212.691082 C84.7841126,213.407335 86.9719266,213.233648 88.8496575,212.209536 C94.02007,209.737755 95.889373,202.892821 93.9405252,197.230962 C93.5825736,196.195772 93.2643943,195.118328 92.9462151,194.083138 C91.5236534,189.203738 90.7865552,184.128054 90.7587329,179.020059 C90.7587329,169.668133 92.9528438,164.985128 97.3410658,164.971043 C99.6931409,164.992438 101.753879,166.649399 102.412047,169.048427 C104.001307,173.186775 105.200347,177.482356 105.991564,181.872114 C107.044887,187.384191 108.433199,192.817995 110.14778,198.139395 C111.645558,202.495216 114.139975,206.386682 117.406244,209.463112 C121.156692,212.752625 125.932962,214.426408 130.789658,214.153159 C135.516528,214.24041 140.151943,212.763802 144.053755,209.927892 C148.302388,206.707328 151.588515,202.2555 153.519587,197.104204 C155.994992,190.379889 157.171736,183.195244 156.979786,175.977866 C156.982689,170.328847 156.361977,164.698958 155.130369,159.203553 C154.657787,156.926753 154.053424,154.683099 153.320725,152.485377 C152.507841,150.295495 150.871987,148.565071 148.807183,147.710902 C146.742378,146.856734 144.435783,146.956245 142.442972,147.985467 C137.461683,150.514822 135.116491,156.66099 137.033925,162.16124 C138.44616,166.657968 139.177789,171.364282 139.201521,176.104624 C139.48222,179.754005 138.793222,183.413827 137.212901,186.667793 C136.184289,188.701769 134.195871,189.980552 132.022602,190.005755 C129.773686,189.934732 127.81954,188.343692 127.170369,186.055129 C125.693891,181.9474 124.575569,177.70432 123.829487,173.379326 C122.801438,167.847849 121.371992,162.409185 119.553954,157.112045 C118.115429,152.786152 115.657557,148.923978 112.414807,145.89396 C108.750003,142.519371 103.99311,140.791923 99.1507102,141.077155 C94.4567123,141.004882 89.8571692,142.48113 85.9860444,145.302422 C81.7665895,148.603731 78.4957844,153.088024 76.5400984,158.252868 C74.0768207,164.921851 72.9001285,172.048702 73.0798992,179.210196" id="Path" fill="#FDBF2D"></path>
            <path d="M189.018261,220.276647 C183.898833,220.281762 179.299332,216.948147 177.428492,211.876637 C175.557652,206.805127 176.797632,201.031684 180.552979,197.328783 C208.38285,169.805101 217.596798,126.985417 203.795316,89.3154167 C189.993835,51.6454168 155.976203,26.7655016 117.985274,26.5554168 C79.9943453,26.345332 45.7356119,50.847688 31.5670493,88.3630174 C17.3984866,125.878347 26.1938269,168.79762 53.7534413,196.627599 C58.202695,201.758772 58.1422318,209.68543 53.6152902,214.739054 C49.0883486,219.792678 41.6516034,220.235485 36.6232251,215.750813 C1.66283529,180.444861 -9.49312962,125.997973 8.48203878,78.4072455 C26.4572072,30.8165178 69.9177714,-0.265661173 118.112343,0 C166.306915,0.269084011 209.460635,31.8317794 226.968625,79.6193597 C244.476615,127.40694 232.787891,181.727091 197.483543,216.64323 C195.188434,218.928632 192.161343,220.197507 189.018261,220.191649" id="Path" fill="#FCBF2B"></path>
            <path d="M67.4599991,228.112575 L168.54,228.112575 C175.421468,228.112575 181,233.959682 181,241.172455 C181,248.385228 175.421468,254.232335 168.54,254.232335 L67.4599991,254.232335 C60.5785314,254.232335 55,248.385227 55,241.172455 C55,233.959683 60.5785314,228.112575 67.4599991,228.112575" id="Path" fill="#323232"></path>
            <path d="M75.4167124,264.68024 L159.583288,264.68024 C166.440849,264.68024 172,270.527347 172,277.74012 C172,284.952892 166.440849,290.8 159.583288,290.8 L75.4167124,290.8 C68.5591515,290.8 63,284.952892 63,277.74012 C63,270.527347 68.5591515,264.68024 75.4167124,264.68024" id="Path" fill="#323232"></path>
            <path d="M322.257071,222.92018 C314.258543,220.681588 306.713665,216.885493 300,211.721859 L309.828056,188.347754 C315.651825,192.802687 322.107776,196.225099 328.948091,198.483616 C336.098786,201.003594 343.577515,202.294563 351.105889,202.308469 C359.325717,202.308469 365.401242,201.005186 369.332464,198.398619 C372.969453,196.369028 375.261081,192.354966 375.288862,187.965268 C375.341093,184.889737 374.057706,181.962162 371.814297,180.039322 C369.169474,177.746481 366.135696,176.022037 362.879701,174.960766 C359.23968,173.685815 354.322343,172.269203 348.12769,170.710929 C340.177246,168.858719 332.339921,166.488564 324.659485,163.613701 C318.60988,161.208183 313.232348,157.193414 309.033869,151.947897 C304.692317,146.593102 302.514923,139.453375 302.501687,130.528717 C302.449952,123.006155 304.526414,115.642912 308.458084,109.407026 C312.925846,102.64932 319.134729,97.4293226 326.327276,94.3838506 C335.546056,90.4269001 345.426149,88.5391953 355.354785,88.8378129 C363.244828,88.8364359 371.105634,89.8639687 378.763427,91.8976958 C385.824542,93.6881204 392.578346,96.6568333 398.776922,100.694859 L389.842326,124.217709 C379.343466,117.531769 367.391494,113.905329 355.176094,113.699361 C347.075393,113.699361 341.099141,115.123057 337.306902,117.949199 C333.659822,120.273322 331.443724,124.498761 331.489487,129.041274 C331.489487,133.631098 333.726445,137.045134 338.200361,139.283382 C344.787375,142.225802 351.640404,144.433232 358.650659,145.87063 C366.502971,147.761035 374.246084,150.137862 381.840899,152.989107 C387.862778,155.36971 393.238577,159.312379 397.486369,164.463668 C401.841157,169.705134 404.011933,176.788196 403.998697,185.712855 C404.059657,193.183976 401.980957,200.495826 398.042299,206.664553 C393.555954,213.398321 387.352263,218.606577 380.173107,221.666478 C370.91804,225.617414 361.006748,227.504626 351.046325,227.212516 C341.349692,227.257691 331.696333,225.826752 322.376199,222.962679" id="Path" fill="#323232"></path>
            <polygon id="Path" fill="#323232" points="448.02623 116.538908 408 116.538908 408 91.4191617 517 91.4191617 517 116.538908 476.97377 116.538908 476.97377 224.62994 448.02623 224.62994"></polygon>
            <polygon id="Path" fill="#323232" points="630 199.890796 630 224.62994 533 224.62994 533 91.4191617 627.673432 91.4191617 627.673432 116.158306 561.813653 116.158306 561.813653 145.084075 619.97786 145.084075 619.97786 169.062015 561.813653 169.062015 561.813653 199.890796"></polygon>
            <polygon id="Path" fill="#323232" points="759.643853 224.62994 759.463878 144.724618 722.3891 210.547658 709.250951 210.547658 672.356147 146.416183 672.356147 224.62994 645 224.62994 645 91.4191617 669.116603 91.4191617 716.269962 174.200145 762.703422 91.4191617 786.640051 91.4191617 787 224.62994"></polygon>
            <path d="M807.871637,106.87136 C804.764872,103.808175 803,99.5128265 803,95.0147579 C803,90.5166893 804.764872,86.2213405 807.871637,83.158156 C811.333797,79.8843508 815.862784,78.1694465 820.497753,78.3772681 C825.1014,78.1670295 829.610375,79.8060627 833.123869,82.9669205 C836.284349,85.8267259 838.07116,90.0365402 837.993942,94.4410514 C838.117585,99.1066049 836.343657,103.603397 833.123869,106.786366 C829.685464,110.110861 825.147123,111.859858 820.497753,111.652248 C815.862784,111.860069 811.333797,110.145165 807.871637,106.87136 M806.428653,121.745233 L834.486688,121.745233 L834.486688,224.62994 L806.428653,224.62994 L806.428653,121.745233 Z" id="Shape" fill="#FCBE2B"></path>
            <path d="M944.946699,131.634799 C952.302241,139.28872 955.986675,150.627862 956,165.652226 L956,224.587418 L928.016959,224.587418 L928.016959,170.2871 C928.016959,162.122918 926.337977,156.035216 922.980012,152.023994 C919.622047,148.012772 914.764991,146.000075 908.408843,145.985901 C902.095959,145.669158 895.952183,148.210572 891.499091,152.980734 C887.301635,157.629783 885.202907,164.546659 885.202907,173.731365 L885.202907,224.62994 L857,224.62994 L857,121.684701 L883.803755,121.684701 L883.803755,133.739627 C887.643186,129.317345 892.380616,125.885195 897.65536,123.704486 C903.440323,121.287828 909.609604,120.082232 915.824349,120.153917 C927.817081,120.153917 937.504543,123.980878 944.886735,131.634799" id="Path" fill="#FCBE2B"></path>
            <path d="M1074,82.7125749 L1074,223.971662 L1047.30089,223.971662 L1047.30089,212.168342 C1040.37227,221.052561 1030.3377,225.494671 1017.1972,225.494671 C1008.59317,225.631372 1000.10211,223.401578 992.54881,219.021883 C985.244786,214.7486 979.247205,208.33986 975.267062,200.555398 C966.910979,183.088803 966.910979,162.432164 975.267062,144.965569 C979.247205,137.181107 985.244786,130.772367 992.54881,126.499084 C1000.10898,122.138168 1008.59533,119.909609 1017.1972,120.026296 C1029.50149,120.026296 1039.11795,124.151112 1046.04657,132.400744 L1046.04657,82.7125749 L1074,82.7125749 Z M1039.59578,193.42687 C1044.25469,188.279664 1046.58414,181.390868 1046.58414,172.760484 C1046.58414,164.130099 1044.25469,157.248355 1039.59578,152.11525 C1029.82402,141.82025 1014.06739,141.82025 1004.29562,152.11525 C999.636716,157.248355 997.307264,164.130099 997.307264,172.760484 C997.307264,181.390868 999.636716,188.279664 1004.29562,193.42687 C1014.07628,203.6989 1029.81513,203.6989 1039.59578,193.42687" id="Shape" fill="#FCBE2B"></path>
            <path d="M1109.2673,222.334859 C1102.81632,220.765766 1096.64734,218.09793 1091,214.43498 L1100.29284,193.143328 C1105.13276,196.312758 1110.38139,198.717773 1115.87377,200.28279 C1121.69446,202.076059 1127.72204,203.000249 1133.78288,203.028738 C1145.6029,203.028738 1151.5129,199.923705 1151.5129,193.71364 C1151.5129,190.798711 1149.90108,188.686444 1146.67744,187.376838 C1141.84434,185.744043 1136.86154,184.660712 1131.81288,184.14507 C1125.20092,183.214964 1118.65816,181.7963 1112.23225,179.899413 C1107.13592,178.278197 1102.53107,175.26234 1098.88001,171.154627 C1095.12573,166.930093 1093.24859,160.9735 1093.24859,153.284847 C1093.16269,147.09161 1095.01758,141.043576 1098.52183,136.090993 C1102.50898,130.721666 1107.84985,126.663792 1113.92366,124.389033 C1121.56891,121.426461 1129.66532,119.99408 1137.80248,120.164499 C1144.63649,120.171813 1151.44926,120.972189 1158.11938,122.551361 C1163.99422,123.784361 1169.64883,125.994245 1174.87435,129.099389 L1165.56161,150.22206 C1157.06459,145.137131 1147.45682,142.514637 1137.70299,142.617898 C1133.08796,142.324432 1128.47565,143.23834 1124.27115,145.279355 C1121.66835,146.463729 1119.93021,149.120575 1119.79387,152.1231 C1119.76783,155.25909 1121.76517,158.007445 1124.62933,158.776742 C1129.64756,160.481533 1134.80341,161.690661 1140.03117,162.388719 C1146.55724,163.468174 1153.0162,164.963545 1159.37301,166.866725 C1164.38407,168.444715 1168.90086,171.429446 1172.44667,175.505897 C1176.14788,179.730431 1177.99849,185.560289 1177.99849,192.995469 C1178.06123,199.111365 1176.16705,205.068867 1172.62576,209.893606 C1168.52713,215.224772 1163.09085,219.215842 1156.94533,221.405461 C1149.09378,224.298526 1140.81841,225.679113 1132.50934,225.482137 C1124.59593,225.497862 1116.71263,224.447418 1109.04841,222.355982" id="Path" fill="#FCBE2B"></path>
        </g>
    </g>
</svg>