<?xml version="1.0" encoding="UTF-8"?>
<svg width="1178px" height="291px" viewBox="0 0 1178 291" version="1.1" xmlns="http://www.w3.org/2000/svg" xmlns:xlink="http://www.w3.org/1999/xlink">
    <title>logo</title>
    <g id="Page-1" stroke="none" stroke-width="1" fill="none" fill-rule="evenodd">
        <g id="logo" transform="translate(0.000000, -0.001690)" fill-rule="nonzero">
            <path d="M72.999658,179.148507 C72.9805699,186.011449 73.7892411,192.84876 75.4065848,199.493171 C76.143034,202.533784 77.086807,205.513426 78.2304255,208.408485 C79.1414121,210.431235 80.7838106,211.976519 82.7839616,212.692772 C84.7841126,213.409025 86.9719266,213.235338 88.8496575,212.211226 C94.02007,209.739445 95.889373,202.894511 93.9405252,197.232652 C93.5825736,196.197462 93.2643943,195.120018 92.9462151,194.084828 C91.5236534,189.205428 90.7865552,184.129744 90.7587329,179.021749 C90.7587329,169.669823 92.9528438,164.986818 97.3410658,164.972733 C99.6931409,164.994128 101.753879,166.651089 102.412047,169.050117 C104.001307,173.188465 105.200347,177.484046 105.991564,181.873804 C107.044887,187.385881 108.433199,192.819685 110.14778,198.141085 C111.645558,202.496906 114.139975,206.388372 117.406244,209.464802 C121.156692,212.754315 125.932962,214.428098 130.789658,214.154849 C135.516528,214.2421 140.151943,212.765492 144.053755,209.929582 C148.302388,206.709018 151.588515,202.25719 153.519587,197.105894 C155.994992,190.381579 157.171736,183.196934 156.979786,175.979556 C156.982689,170.330537 156.361977,164.700648 155.130369,159.205243 C154.657787,156.928443 154.053424,154.684789 153.320725,152.487067 C152.507841,150.297185 150.871987,148.566761 148.807183,147.712592 C146.742378,146.858424 144.435783,146.957935 142.442972,147.987157 C137.461683,150.516512 135.116491,156.66268 137.033925,162.16293 C138.44616,166.659658 139.177789,171.365972 139.201521,176.106314 C139.48222,179.755695 138.793222,183.415517 137.212901,186.669483 C136.184289,188.703459 134.195871,189.982242 132.022602,190.007445 C129.773686,189.936422 127.81954,188.345382 127.170369,186.056819 C125.693891,181.94909 124.575569,177.70601 123.829487,173.381016 C122.801438,167.849539 121.371992,162.410875 119.553954,157.113735 C118.115429,152.787842 115.657557,148.925668 112.414807,145.89565 C108.750003,142.521061 103.99311,140.793613 99.1507102,141.078845 C94.4567123,141.006572 89.8571692,142.48282 85.9860444,145.304112 C81.7665895,148.605421 78.4957844,153.089714 76.5400984,158.254558 C74.0768207,164.923541 72.9001285,172.050392 73.0798992,179.211886" id="Path" fill="#FDBF2D"></path>
            <path d="M189.018261,220.278343 C183.898833,220.283452 179.299332,216.949837 177.428492,211.878327 C175.557652,206.806817 176.797632,201.033374 180.552979,197.330473 C208.38285,169.806791 217.596798,126.987107 203.795316,89.3171064 C189.993835,51.6471065 155.976203,26.7671913 117.985274,26.5571065 C79.9943453,26.3470217 45.7356119,50.8493777 31.5670493,88.3647071 C17.3984866,125.880037 26.1938269,168.79931 53.7534413,196.629289 C58.202695,201.760462 58.1422318,209.68712 53.6152902,214.740744 C49.0883486,219.794368 41.6516034,220.237175 36.6232251,215.752503 C1.66283529,180.446551 -9.49312962,125.999663 8.48203878,78.4089352 C26.4572072,30.8182075 69.9177714,-0.263971508 118.112343,-1.42108547e-14 C166.306915,0.270773676 209.460635,31.8334691 226.968625,79.6210494 C244.476615,127.40863 232.787891,181.728781 197.483543,216.64492 C195.188434,218.930322 192.161343,220.199197 189.018261,220.193339" id="Path" fill="#FCBF2B"></path>
            <path d="M67.4599991,228.114265 L168.54,228.114265 C175.421468,228.114265 181,233.961372 181,241.174145 C181,248.386918 175.421468,254.234025 168.54,254.234025 L67.4599991,254.234025 C60.5785314,254.234025 55,248.386917 55,241.174145 C55,233.961373 60.5785314,228.114265 67.4599991,228.114265" id="Path" fill="#FFFFFF"></path>
            <path d="M75.4167124,264.68193 L159.583288,264.68193 C166.440849,264.68193 172,270.529037 172,277.74181 C172,284.954582 166.440849,290.80169 159.583288,290.80169 L75.4167124,290.80169 C68.5591515,290.80169 63,284.954582 63,277.74181 C63,270.529037 68.5591515,264.68193 75.4167124,264.68193" id="Path" fill="#FFFFFF"></path>
            <path d="M322.257071,222.92187 C314.258543,220.683278 306.713665,216.887183 300,211.723549 L309.828056,188.349444 C315.651825,192.804377 322.107776,196.226789 328.948091,198.485306 C336.098786,201.005284 343.577515,202.296253 351.105889,202.310159 C359.325717,202.310159 365.401242,201.006876 369.332464,198.400309 C372.969453,196.370718 375.261081,192.356656 375.288862,187.966958 C375.341093,184.891427 374.057706,181.963852 371.814297,180.041012 C369.169474,177.748171 366.135696,176.023727 362.879701,174.962456 C359.23968,173.687505 354.322343,172.270893 348.12769,170.712619 C340.177246,168.860409 332.339921,166.490254 324.659485,163.615391 C318.60988,161.209873 313.232348,157.195104 309.033869,151.949587 C304.692317,146.594792 302.514923,139.455065 302.501687,130.530407 C302.449952,123.007845 304.526414,115.644602 308.458084,109.408716 C312.925846,102.65101 319.134729,97.4310123 326.327276,94.3855403 C335.546056,90.4285898 345.426149,88.540885 355.354785,88.8395026 C363.244828,88.8381256 371.105634,89.8656584 378.763427,91.8993855 C385.824542,93.6898101 392.578346,96.658523 398.776922,100.696549 L389.842326,124.219399 C379.343466,117.533459 367.391494,113.907019 355.176094,113.701051 C347.075393,113.701051 341.099141,115.124747 337.306902,117.950889 C333.659822,120.275012 331.443724,124.500451 331.489487,129.042964 C331.489487,133.632788 333.726445,137.046824 338.200361,139.285072 C344.787375,142.227492 351.640404,144.434922 358.650659,145.87232 C366.502971,147.762725 374.246084,150.139552 381.840899,152.990797 C387.862778,155.3714 393.238577,159.314069 397.486369,164.465358 C401.841157,169.706824 404.011933,176.789886 403.998697,185.714545 C404.059657,193.185666 401.980957,200.497516 398.042299,206.666243 C393.555954,213.400011 387.352263,218.608267 380.173107,221.668168 C370.91804,225.619104 361.006748,227.506316 351.046325,227.214206 C341.349692,227.259381 331.696333,225.828442 322.376199,222.964369" id="Path" fill="#FFFFFF"></path>
            <polygon id="Path" fill="#FFFFFF" points="448.02623 116.540598 408 116.540598 408 91.4208514 517 91.4208514 517 116.540598 476.97377 116.540598 476.97377 224.63163 448.02623 224.63163"></polygon>
            <polygon id="Path" fill="#FFFFFF" points="630 199.892486 630 224.63163 533 224.63163 533 91.4208514 627.673432 91.4208514 627.673432 116.159996 561.813653 116.159996 561.813653 145.085765 619.97786 145.085765 619.97786 169.063705 561.813653 169.063705 561.813653 199.892486"></polygon>
            <polygon id="Path" fill="#FFFFFF" points="759.643853 224.63163 759.463878 144.726308 722.3891 210.549348 709.250951 210.549348 672.356147 146.417873 672.356147 224.63163 645 224.63163 645 91.4208514 669.116603 91.4208514 716.269962 174.201835 762.703422 91.4208514 786.640051 91.4208514 787 224.63163"></polygon>
            <path d="M807.871637,106.87305 C804.764872,103.809865 803,99.5145162 803,95.0164476 C803,90.518379 804.764872,86.2230302 807.871637,83.1598457 C811.333797,79.8860405 815.862784,78.1711362 820.497753,78.3789578 C825.1014,78.1687192 829.610375,79.8077524 833.123869,82.9686102 C836.284349,85.8284156 838.07116,90.0382299 837.993942,94.4427411 C838.117585,99.1082946 836.343657,103.605087 833.123869,106.788056 C829.685464,110.112551 825.147123,111.861548 820.497753,111.653938 C815.862784,111.861759 811.333797,110.146855 807.871637,106.87305 M806.428653,121.746923 L834.486688,121.746923 L834.486688,224.63163 L806.428653,224.63163 L806.428653,121.746923 Z" id="Shape" fill="#FCBE2B"></path>
            <path d="M944.946699,131.636489 C952.302241,139.29041 955.986675,150.629552 956,165.653916 L956,224.589108 L928.016959,224.589108 L928.016959,170.28879 C928.016959,162.124608 926.337977,156.036906 922.980012,152.025684 C919.622047,148.014462 914.764991,146.001765 908.408843,145.987591 C902.095959,145.670848 895.952183,148.212262 891.499091,152.982424 C887.301635,157.631473 885.202907,164.548349 885.202907,173.733055 L885.202907,224.63163 L857,224.63163 L857,121.686391 L883.803755,121.686391 L883.803755,133.741317 C887.643186,129.319035 892.380616,125.886885 897.65536,123.706176 C903.440323,121.289518 909.609604,120.083922 915.824349,120.155607 C927.817081,120.155607 937.504543,123.982568 944.886735,131.636489" id="Path" fill="#FCBE2B"></path>
            <path d="M1074,82.7142646 L1074,223.973352 L1047.30089,223.973352 L1047.30089,212.170032 C1040.37227,221.054251 1030.3377,225.496361 1017.1972,225.496361 C1008.59317,225.633062 1000.10211,223.403268 992.54881,219.023573 C985.244786,214.75029 979.247205,208.34155 975.267062,200.557088 C966.910979,183.090493 966.910979,162.433854 975.267062,144.967259 C979.247205,137.182797 985.244786,130.774057 992.54881,126.500774 C1000.10898,122.139858 1008.59533,119.911299 1017.1972,120.027986 C1029.50149,120.027986 1039.11795,124.152802 1046.04657,132.402434 L1046.04657,82.7142646 L1074,82.7142646 Z M1039.59578,193.42856 C1044.25469,188.281354 1046.58414,181.392558 1046.58414,172.762174 C1046.58414,164.131789 1044.25469,157.250045 1039.59578,152.11694 C1029.82402,141.82194 1014.06739,141.82194 1004.29562,152.11694 C999.636716,157.250045 997.307264,164.131789 997.307264,172.762174 C997.307264,181.392558 999.636716,188.281354 1004.29562,193.42856 C1014.07628,203.70059 1029.81513,203.70059 1039.59578,193.42856" id="Shape" fill="#FCBE2B"></path>
            <path d="M1109.2673,222.336549 C1102.81632,220.767456 1096.64734,218.09962 1091,214.43667 L1100.29284,193.145018 C1105.13276,196.314448 1110.38139,198.719463 1115.87377,200.28448 C1121.69446,202.077749 1127.72204,203.001939 1133.78288,203.030428 C1145.6029,203.030428 1151.5129,199.925395 1151.5129,193.71533 C1151.5129,190.800401 1149.90108,188.688134 1146.67744,187.378528 C1141.84434,185.745733 1136.86154,184.662402 1131.81288,184.14676 C1125.20092,183.216654 1118.65816,181.79799 1112.23225,179.901103 C1107.13592,178.279887 1102.53107,175.26403 1098.88001,171.156317 C1095.12573,166.931783 1093.24859,160.97519 1093.24859,153.286537 C1093.16269,147.0933 1095.01758,141.045266 1098.52183,136.092683 C1102.50898,130.723356 1107.84985,126.665482 1113.92366,124.390723 C1121.56891,121.428151 1129.66532,119.99577 1137.80248,120.166189 C1144.63649,120.173503 1151.44926,120.973879 1158.11938,122.553051 C1163.99422,123.786051 1169.64883,125.995935 1174.87435,129.101079 L1165.56161,150.22375 C1157.06459,145.138821 1147.45682,142.516327 1137.70299,142.619588 C1133.08796,142.326122 1128.47565,143.24003 1124.27115,145.281045 C1121.66835,146.465419 1119.93021,149.122265 1119.79387,152.12479 C1119.76783,155.26078 1121.76517,158.009135 1124.62933,158.778432 C1129.64756,160.483223 1134.80341,161.692351 1140.03117,162.390409 C1146.55724,163.469864 1153.0162,164.965235 1159.37301,166.868415 C1164.38407,168.446405 1168.90086,171.431136 1172.44667,175.507587 C1176.14788,179.732121 1177.99849,185.561979 1177.99849,192.997159 C1178.06123,199.113055 1176.16705,205.070557 1172.62576,209.895296 C1168.52713,215.226462 1163.09085,219.217532 1156.94533,221.407151 C1149.09378,224.300216 1140.81841,225.680803 1132.50934,225.483827 C1124.59593,225.499552 1116.71263,224.449108 1109.04841,222.357672" id="Path" fill="#FCBE2B"></path>
        </g>
    </g>
</svg>